<?xml version="1.0" encoding="utf-8"?>
<!-- Generator: Adobe Illustrator 18.0.0, SVG Export Plug-In . SVG Version: 6.00 Build 0)  -->
<!DOCTYPE svg PUBLIC "-//W3C//DTD SVG 1.1//EN" "http://www.w3.org/Graphics/SVG/1.1/DTD/svg11.dtd">
<svg version="1.1" id="Layer_1" xmlns="http://www.w3.org/2000/svg" xmlns:xlink="http://www.w3.org/1999/xlink" x="0px" y="0px"
	 viewBox="113.4 73.4 40 120" enable-background="new 113.4 73.4 40 120" xml:space="preserve">
<path id="Blue_1_" fill="#3C5A99" d="M151.2,113.4c1.2,0,2.2-1,2.2-2.2V75.7c0-1.2-1-2.2-2.2-2.2h-35.6c-1.2,0-2.2,1-2.2,2.2v35.6
	c0,1.2,1,2.2,2.2,2.2H151.2z"/>
<path id="f" fill="#FFFFFF" d="M141,113.4V98h5.2l0.8-6h-6v-3.9c0-1.7,0.5-2.9,3-2.9l3.2,0v-5.4c-0.6-0.1-2.5-0.2-4.7-0.2
	c-4.6,0-7.8,2.8-7.8,8v4.5h-5.2v6h5.2v15.5H141z"/>
<path id="Blue_2_" d="M151.2,153.4c1.2,0,2.2-1,2.2-2.2v-35.6c0-1.2-1-2.2-2.2-2.2h-35.6c-1.2,0-2.2,1-2.2,2.2v35.6
	c0,1.2,1,2.2,2.2,2.2H151.2z"/>
<path id="f_1_" fill="#FFFFFF" d="M141,153.4V138h5.2l0.8-6h-6v-3.9c0-1.7,0.5-2.9,3-2.9l3.2,0v-5.4c-0.6-0.1-2.5-0.2-4.7-0.2
	c-4.6,0-7.8,2.8-7.8,8v4.5h-5.2v6h5.2v15.5H141z"/>
<path id="Blue_3_" fill="#3C5A99" d="M151.2,193.4c1.2,0,2.2-1,2.2-2.2v-35.6c0-1.2-1-2.2-2.2-2.2h-35.6c-1.2,0-2.2,1-2.2,2.2v35.6
	c0,1.2,1,2.2,2.2,2.2H151.2z"/>
<path id="f_2_" fill="#FFFFFF" d="M141,193.4V178h5.2l0.8-6h-6v-3.9c0-1.7,0.5-2.9,3-2.9l3.2,0v-5.4c-0.6-0.1-2.5-0.2-4.7-0.2
	c-4.6,0-7.8,2.8-7.8,8v4.5h-5.2v6h5.2v15.5H141z"/>
</svg>
